<svg width="16" height="16" viewBox="0 0 16 16" fill="none" xmlns="http://www.w3.org/2000/svg">
<path fill-rule="evenodd" clip-rule="evenodd" d="M10.8263 5.17333C10.0463 4.39333 9.02634 4 7.99967 4V8L5.17301 10.8267C6.73301 12.3867 9.26634 12.3867 10.833 10.8267C12.393 9.26667 12.393 6.73333 10.8263 5.17333ZM7.99967 1.33333C4.31967 1.33333 1.33301 4.32 1.33301 8C1.33301 11.68 4.31967 14.6667 7.99967 14.6667C11.6797 14.6667 14.6663 11.68 14.6663 8C14.6663 4.32 11.6797 1.33333 7.99967 1.33333ZM7.99967 13.3333C5.05301 13.3333 2.66634 10.9467 2.66634 8C2.66634 5.05333 5.05301 2.66667 7.99967 2.66667C10.9463 2.66667 13.333 5.05333 13.333 8C13.333 10.9467 10.9463 13.3333 7.99967 13.3333Z" fill="#969696"/>
</svg>
