<svg width="16" height="16" viewBox="0 0 16 16" fill="none" xmlns="http://www.w3.org/2000/svg">
<path fill-rule="evenodd" clip-rule="evenodd" d="M8.00033 3.33333C4.66699 3.33333 1.82033 5.40667 0.666992 8.33333C1.82033 11.26 4.66699 13.3333 8.00033 13.3333C11.3337 13.3333 14.1803 11.26 15.3337 8.33333C14.1803 5.40667 11.3337 3.33333 8.00033 3.33333ZM8.00033 11.6667C6.16033 11.6667 4.66699 10.1733 4.66699 8.33333C4.66699 6.49333 6.16033 5 8.00033 5C9.84033 5 11.3337 6.49333 11.3337 8.33333C11.3337 10.1733 9.84033 11.6667 8.00033 11.6667ZM8.00033 6.33333C6.89366 6.33333 6.00033 7.22667 6.00033 8.33333C6.00033 9.44 6.89366 10.3333 8.00033 10.3333C9.10699 10.3333 10.0003 9.44 10.0003 8.33333C10.0003 7.22667 9.10699 6.33333 8.00033 6.33333Z" fill="#969696"/>
</svg>
